<?xml version="1.0" encoding="iso-8859-1"?>
<!-- Uploaded to: SVG Repo, www.svgrepo.com, Generator: SVG Repo Mixer Tools -->
<svg height="800px" width="800px" version="1.1" id="Layer_1" xmlns="http://www.w3.org/2000/svg" xmlns:xlink="http://www.w3.org/1999/xlink" 
	 viewBox="0 0 513.488 513.488" xml:space="preserve">
<g transform="translate(1 1)">
	<path style="fill:#FFE100;" d="M365.933,353.878c0,80.213-49.493,145.067-110.933,145.067s-110.933-64.853-110.933-145.067
		S193.56,208.811,255,208.811S365.933,273.664,365.933,353.878"/>
	<path style="fill:#FFA800;" d="M255,208.811c-4.267,0-8.533,0-12.8,0.853c55.467,8.533,98.133,69.973,98.133,144.213
		s-42.667,135.68-98.133,144.213c4.267,0.853,8.533,0.853,12.8,0.853c61.44,0,110.933-64.853,110.933-145.067
		S316.44,208.811,255,208.811"/>
	<path style="fill:#FFE100;" d="M314.733,157.611c0,28.16-26.453,51.2-59.733,51.2s-59.733-23.04-59.733-51.2
		s26.453-51.2,59.733-51.2S314.733,129.451,314.733,157.611"/>
	<path style="fill:#FFA800;" d="M255,106.411c-4.267,0-8.533,0.853-12.8,0.853c26.453,5.12,46.933,25.6,46.933,50.347
		s-20.48,45.227-46.933,50.347c4.267,0.853,8.533,0.853,12.8,0.853c33.28,0,59.733-23.04,59.733-51.2S288.28,106.411,255,106.411"/>
	<path style="fill:#FFE100;" d="M212.333,72.278c0-18.773,18.773-34.133,42.667-34.133s42.667,15.36,42.667,34.133
		S278.893,106.411,255,106.411S212.333,91.051,212.333,72.278"/>
	<path style="fill:#FFA800;" d="M255,38.144c-2.56,0-5.973,0-8.533,0.853c19.627,3.413,34.133,17.067,34.133,33.28
		s-14.507,29.867-34.133,33.28c2.56,0.853,5.973,0.853,8.533,0.853c23.893,0,42.667-15.36,42.667-34.133S278.893,38.144,255,38.144"
		/>
	<g>
		<path style="fill:#FFFFFF;" d="M255,208.811c4.267,0,8.533,0,12.8,0.853c-55.467,8.533-98.133,69.973-98.133,144.213
			s42.667,135.68,98.133,144.213c-4.267,0.853-8.533,0.853-12.8,0.853c-61.44,0-110.933-64.853-110.933-145.067
			S193.56,208.811,255,208.811"/>
		<path style="fill:#FFFFFF;" d="M255,106.411c4.267,0,8.533,0.853,12.8,0.853c-26.453,5.12-46.933,25.6-46.933,50.347
			s20.48,45.227,46.933,50.347c-4.267,0-8.533,0.853-12.8,0.853c-33.28,0-59.733-23.04-59.733-51.2S221.72,106.411,255,106.411"/>
		<path style="fill:#FFFFFF;" d="M255,38.144c2.56,0,5.973,0,8.533,0.853c-19.627,3.413-34.133,17.067-34.133,33.28
			s14.507,29.867,34.133,33.28c-2.56,0.853-5.973,0.853-8.533,0.853c-23.893,0-42.667-15.36-42.667-34.133
			S231.107,38.144,255,38.144"/>
	</g>
	<g>
		<path style="fill:#FFE100;" d="M212.333,80.811c-18.773,0-34.133-15.36-34.133-34.133s15.36-34.133,34.133-34.133
			c5.12,0,8.533,3.413,8.533,8.533s-3.413,8.533-8.533,8.533c-9.387,0-17.067,7.68-17.067,17.067s7.68,17.067,17.067,17.067
			c5.12,0,8.533,3.413,8.533,8.533C220.867,77.398,217.453,80.811,212.333,80.811z"/>
		<path style="fill:#FFE100;" d="M297.667,80.811c-5.12,0-8.533-3.413-8.533-8.533c0-5.12,3.413-8.533,8.533-8.533
			c9.387,0,17.067-7.68,17.067-17.067s-7.68-17.067-17.067-17.067c-5.12,0-8.533-3.413-8.533-8.533s3.413-8.533,8.533-8.533
			c18.773,0,34.133,15.36,34.133,34.133S316.44,80.811,297.667,80.811z"/>
		<path style="fill:#FFE100;" d="M383,174.678c-0.853,0-1.707,0-1.707,0l-68.267-17.067c-4.267-0.853-7.68-5.973-5.973-10.24
			c0.853-4.267,5.973-7.68,10.24-5.973l64.853,16.213l73.387-49.493c1.707-0.853,3.413-1.707,5.12-1.707h42.667
			c5.12,0,8.533,3.413,8.533,8.533s-3.413,8.533-8.533,8.533h-40.107l-74.24,49.493C386.413,173.824,384.707,174.678,383,174.678z"
			/>
		<path style="fill:#FFE100;" d="M502.467,294.144c-1.707,0-3.413-0.853-5.12-1.707l-32.427-23.893l-65.707-8.533
			c-1.707,0-2.56-0.853-3.413-1.707l-85.333-59.733c-4.267-2.56-5.12-7.68-1.707-11.947c2.56-4.267,7.68-5.12,11.947-1.707
			l83.627,58.88l66.56,8.533c1.707,0,2.56,0.853,4.267,1.707l34.133,25.6c3.413,2.56,4.267,8.533,1.707,11.947
			C507.587,293.291,505.027,294.144,502.467,294.144z"/>
		<path style="fill:#FFE100;" d="M127,174.678c-1.707,0-3.413-0.853-5.12-1.707l-74.24-49.493H7.533
			c-5.12,0-8.533-3.413-8.533-8.533s3.413-8.533,8.533-8.533H50.2c1.707,0,3.413,0.853,5.12,1.707l73.387,49.493l64.853-16.213
			c4.267-0.853,9.387,1.707,10.24,5.973c0.853,4.267-1.707,9.387-5.973,10.24l-68.267,17.067
			C128.707,174.678,127.853,174.678,127,174.678z"/>
		<path style="fill:#FFE100;" d="M7.533,294.144c-2.56,0-5.12-0.853-6.827-3.413c-2.56-3.413-1.707-9.387,1.707-11.947l34.133-25.6
			c0.853-0.853,2.56-1.707,4.267-1.707l66.56-8.533L191,184.064c4.267-2.56,9.387-1.707,11.947,1.707
			c2.56,4.267,1.707,9.387-1.707,11.947l-85.333,59.733c-0.853,0.853-2.56,1.707-3.413,1.707l-65.707,8.533L14.36,291.584
			C10.947,293.291,9.24,294.144,7.533,294.144z"/>
		<path style="fill:#FFE100;" d="M434.2,498.944c-3.413,0-5.973-1.707-7.68-5.12l-34.133-68.267c-0.853-1.707-0.853-4.267,0-6.827
			l23.04-62.293l-63.147-47.787c-3.413-2.56-4.267-8.533-1.707-11.947c2.56-3.413,8.533-4.267,11.947-1.707l68.267,51.2
			c3.413,2.56,4.267,5.973,2.56,10.24l-23.893,64.853l32.427,64.853c1.707,4.267,0,9.387-3.413,11.093
			C436.76,498.944,435.907,498.944,434.2,498.944z"/>
		<path style="fill:#FFE100;" d="M75.8,498.944c-0.853,0-2.56,0-3.413-0.853c-4.267-1.707-5.973-6.827-3.413-11.093l32.427-64.853
			l-23.893-64.853c-1.707-3.413,0-7.68,2.56-10.24l68.267-51.2c3.413-2.56,9.387-1.707,11.947,1.707
			c2.56,3.413,1.707,9.387-1.707,11.947l-63.147,47.787l23.04,62.293c0.853,2.56,0.853,4.267,0,6.827l-34.133,68.267
			C81.773,497.238,79.213,498.944,75.8,498.944z"/>
	</g>
	<path d="M255,507.478c-65.707,0-119.467-69.12-119.467-153.6s53.76-153.6,119.467-153.6s119.467,69.12,119.467,153.6
		S320.707,507.478,255,507.478z M255,217.344c-56.32,0-102.4,61.44-102.4,136.533S198.68,490.411,255,490.411
		s102.4-61.44,102.4-136.533S311.32,217.344,255,217.344z"/>
	<path d="M255,217.344c-37.547,0-68.267-26.453-68.267-59.733S217.453,97.878,255,97.878s68.267,26.453,68.267,59.733
		S292.547,217.344,255,217.344z M255,114.944c-28.16,0-51.2,18.773-51.2,42.667s23.04,42.667,51.2,42.667s51.2-18.773,51.2-42.667
		S283.16,114.944,255,114.944z"/>
	<path d="M255,114.944c-28.16,0-51.2-18.773-51.2-42.667s23.04-42.667,51.2-42.667s51.2,18.773,51.2,42.667
		S283.16,114.944,255,114.944z M255,46.678c-18.773,0-34.133,11.093-34.133,25.6s15.36,25.6,34.133,25.6s34.133-11.093,34.133-25.6
		S273.773,46.678,255,46.678z"/>
	<path d="M212.333,72.278c-18.773,0-34.133-15.36-34.133-34.133s15.36-34.133,34.133-34.133c5.12,0,8.533,3.413,8.533,8.533
		s-3.413,8.533-8.533,8.533c-9.387,0-17.067,7.68-17.067,17.067s7.68,17.067,17.067,17.067c5.12,0,8.533,3.413,8.533,8.533
		S217.453,72.278,212.333,72.278z"/>
	<path d="M297.667,72.278c-5.12,0-8.533-3.413-8.533-8.533s3.413-8.533,8.533-8.533c9.387,0,17.067-7.68,17.067-17.067
		s-7.68-17.067-17.067-17.067c-5.12,0-8.533-3.413-8.533-8.533s3.413-8.533,8.533-8.533c18.773,0,34.133,15.36,34.133,34.133
		S316.44,72.278,297.667,72.278z"/>
	<path d="M383,166.144c-0.853,0-1.707,0-1.707,0l-68.267-17.067c-4.267-0.853-7.68-5.973-5.973-10.24
		c0.853-4.267,5.973-7.68,10.24-5.973l64.853,16.213l73.387-49.493c1.707-0.853,3.413-1.707,5.12-1.707h42.667
		c5.12,0,8.533,3.413,8.533,8.533s-3.413,8.533-8.533,8.533h-40.107l-74.24,49.493C386.413,165.291,384.707,166.144,383,166.144z"/>
	<path d="M502.467,285.611c-1.707,0-3.413-0.853-5.12-1.707l-32.427-23.893l-65.707-8.533c-1.707,0-2.56-0.853-3.413-1.707
		l-85.333-59.733c-4.267-2.56-5.12-7.68-1.707-11.947c2.56-4.267,7.68-5.12,11.947-1.707l83.627,58.88l66.56,8.533
		c1.707,0,2.56,0.853,4.267,1.707l34.133,25.6c3.413,2.56,4.267,8.533,1.707,11.947
		C507.587,284.758,505.027,285.611,502.467,285.611z"/>
	<path d="M127,166.144c-1.707,0-3.413-0.853-5.12-1.707l-74.24-49.493H7.533c-5.12,0-8.533-3.413-8.533-8.533
		s3.413-8.533,8.533-8.533H50.2c1.707,0,3.413,0.853,5.12,1.707l73.387,49.493l64.853-16.213c4.267-0.853,9.387,1.707,10.24,5.973
		c0.853,4.267-1.707,9.387-5.973,10.24l-68.267,17.067C128.707,166.144,127.853,166.144,127,166.144z"/>
	<path d="M7.533,285.611c-2.56,0-5.12-0.853-6.827-3.413c-2.56-3.413-1.707-9.387,1.707-11.947l34.133-25.6
		c0.853-0.853,2.56-1.707,4.267-1.707l66.56-8.533L191,175.531c4.267-2.56,9.387-1.707,11.947,1.707
		c2.56,4.267,1.707,9.387-1.707,11.947l-85.333,59.733c-0.853,0.853-2.56,1.707-3.413,1.707l-65.707,8.533L14.36,283.051
		C10.947,284.758,9.24,285.611,7.533,285.611z"/>
	<path d="M212.333,319.744H152.6c-5.12,0-8.533-3.413-8.533-8.533c0-5.12,3.413-8.533,8.533-8.533h59.733
		c5.12,0,8.533,3.413,8.533,8.533C220.867,316.331,217.453,319.744,212.333,319.744z"/>
	<path d="M212.333,405.078H152.6c-5.12,0-8.533-3.413-8.533-8.533s3.413-8.533,8.533-8.533h59.733c5.12,0,8.533,3.413,8.533,8.533
		S217.453,405.078,212.333,405.078z"/>
	<path d="M186.733,362.411h-42.667c-5.12,0-8.533-3.413-8.533-8.533c0-5.12,3.413-8.533,8.533-8.533h42.667
		c5.12,0,8.533,3.413,8.533,8.533C195.267,358.998,191.853,362.411,186.733,362.411z"/>
	<path d="M357.4,319.744h-59.733c-5.12,0-8.533-3.413-8.533-8.533c0-5.12,3.413-8.533,8.533-8.533H357.4
		c5.12,0,8.533,3.413,8.533,8.533C365.933,316.331,362.52,319.744,357.4,319.744z"/>
	<path d="M357.4,405.078h-59.733c-5.12,0-8.533-3.413-8.533-8.533s3.413-8.533,8.533-8.533H357.4c5.12,0,8.533,3.413,8.533,8.533
		S362.52,405.078,357.4,405.078z"/>
	<path d="M365.933,362.411h-42.667c-5.12,0-8.533-3.413-8.533-8.533c0-5.12,3.413-8.533,8.533-8.533h42.667
		c5.12,0,8.533,3.413,8.533,8.533C374.467,358.998,371.053,362.411,365.933,362.411z"/>
	<path d="M434.2,490.411c-3.413,0-5.973-1.707-7.68-5.12l-34.133-68.267c-0.853-1.707-0.853-4.267,0-6.827l23.04-62.293
		l-63.147-47.787c-3.413-2.56-4.267-8.533-1.707-11.947c2.56-3.413,8.533-4.267,11.947-1.707l68.267,51.2
		c3.413,2.56,4.267,5.973,2.56,10.24l-23.893,64.853l32.427,64.853c1.707,4.267,0,9.387-3.413,11.093
		C436.76,490.411,435.907,490.411,434.2,490.411z"/>
	<path d="M75.8,490.411c-0.853,0-2.56,0-3.413-0.853c-4.267-1.707-5.973-6.827-3.413-11.093l32.427-64.853l-23.893-64.853
		c-1.707-3.413,0-7.68,2.56-10.24l68.267-51.2c3.413-2.56,9.387-1.707,11.947,1.707c2.56,3.413,1.707,9.387-1.707,11.947
		l-63.147,47.787l23.04,62.293c0.853,2.56,0.853,4.267,0,6.827l-34.133,68.267C81.773,488.704,79.213,490.411,75.8,490.411z"/>
</g>
</svg>